<?xml version="1.0" encoding="UTF-8" standalone="no"?>
<svg
   xmlns:dc="http://purl.org/dc/elements/1.1/"
   xmlns:cc="http://creativecommons.org/ns#"
   xmlns:rdf="http://www.w3.org/1999/02/22-rdf-syntax-ns#"
   xmlns:svg="http://www.w3.org/2000/svg"
   xmlns="http://www.w3.org/2000/svg"
   xmlns:sodipodi="http://sodipodi.sourceforge.net/DTD/sodipodi-0.dtd"
   xmlns:inkscape="http://www.inkscape.org/namespaces/inkscape"
   version="1.1"
   width="210.00mm"
   height="297.00mm"
   viewBox="0 0 210.00 297.00"
   id="svg2"
   inkscape:version="0.48.5 r10040"
   sodipodi:docname="strechaCela_export.svg">
  <metadata
     id="metadata44">
    <rdf:RDF>
      <cc:Work
         rdf:about="">
        <dc:format>image/svg+xml</dc:format>
        <dc:type
           rdf:resource="http://purl.org/dc/dcmitype/StillImage" />
      </cc:Work>
    </rdf:RDF>
  </metadata>
  <defs
     id="defs42" />
  <sodipodi:namedview
     pagecolor="#ffffff"
     bordercolor="#666666"
     borderopacity="1"
     objecttolerance="10"
     gridtolerance="10"
     guidetolerance="10"
     inkscape:pageopacity="0"
     inkscape:pageshadow="2"
     inkscape:window-width="1863"
     inkscape:window-height="1058"
     id="namedview40"
     showgrid="false"
     showguides="true"
     inkscape:guide-bbox="true"
     inkscape:zoom="0.79398325"
     inkscape:cx="-49.696168"
     inkscape:cy="449.43599"
     inkscape:window-x="0"
     inkscape:window-y="0"
     inkscape:window-maximized="1"
     inkscape:current-layer="svg2">
    <sodipodi:guide
       orientation="0,1"
       position="248.91752,205.27903"
       id="guide3037" />
  </sodipodi:namedview>
  <style
     type="text/css"
     id="style4">
    path {
        fill: none;
        stroke-linecap: butt;
        stroke-linejoin: bevel;
        stroke-dasharray: none;
    }
    path.outer {
        stroke: #000000;
        stroke-dasharray: none;
        stroke-dashoffset: 0;
        stroke-width: 0.3;
        stroke-opacity: 1.0;
    }
    path.convex {
        stroke: #000000;
        stroke-dasharray: 0.50,1.00;
        stroke-dashoffset:0;
        stroke-width:0.2;
        stroke-opacity: 1.0
    }
    path.concave {
        stroke: #000000;
        stroke-dasharray: 1.00,0.50,0.20,0.50;
        stroke-dashoffset: 0;
        stroke-width: 0.2;
        stroke-opacity: 1.0
    }
    path.freestyle {
        stroke: #000000;
        stroke-dasharray: none;
        stroke-dashoffset: 0;
        stroke-width: 0.2;
        stroke-opacity: 1.0
    }
    path.outer_background {
        stroke: #ffffff;
        stroke-opacity: 1.0;
        stroke-width: 0.5
    }
    path.inner_background {
        stroke: #ffffff;
        stroke-opacity: 1.0;
        stroke-width: 0.2
    }
    path.sticker {
        fill: #e5e5e5;
        stroke: none;
        fill-opacity: 1.0;
    }
    path.arrow {
        fill: #000;
    }
    text {
        font-style: normal;
        fill: #000000;
        fill-opacity: 1.0;
        stroke: none;
    }
    text, tspan {
        text-anchor:middle;
    }
    </style>
  <g
     id="g8"
     transform="matrix(0,-1,1,0,-68.407864,345.48822)">
    <path
       style="fill:none;stroke:#000000;stroke-width:0.2;stroke-linecap:butt;stroke-linejoin:bevel;stroke-opacity:1;stroke-dasharray:0.5, 1;stroke-dashoffset:0"
       inkscape:connector-curvature="0"
       id="path10"
       d="m 96.460571,176.24419 19.999999,0"
       class="convex" />
    <path
       style="fill:none;stroke:#000000;stroke-width:0.30000001;stroke-linecap:butt;stroke-linejoin:bevel;stroke-opacity:1;stroke-dasharray:none;stroke-dashoffset:0"
       inkscape:connector-curvature="0"
       id="path12"
       d="m 116.46057,163.49269 0,12.7515 -10,9.99999 -9.999999,-9.99999 0,-12.7515 1.701273,0.6087 2.721436,0.6817 2.77516,0.4117 2.80213,0.1376 2.80213,-0.1376 2.77516,-0.4117 2.72144,-0.6817 z"
       class="outer" />
  </g>
  <g
     id="g14"
     transform="matrix(-1,0,0,-1,90.196995,286.97282)">
    <path
       style="fill:none;stroke:#000000;stroke-width:0.30000001;stroke-linecap:butt;stroke-linejoin:bevel;stroke-opacity:1;stroke-dasharray:none;stroke-dashoffset:0"
       inkscape:connector-curvature="0"
       id="path16"
       d="m 79.174493,123.24358 2.0433,3.40901 1.699298,3.5929 1.339011,3.7422 0.940897,3.75649 -2.196998,0 0,16.00001 2.196998,0 -0.940897,3.75649 -1.339003,3.7422 -1.699299,3.59291 -2.043299,3.40899 -2.367601,3.1923 -2.669096,2.9449 -2.944901,2.6691 -3.192299,2.36761 -3.409002,2.04329 -3.592901,1.6993 -3.742199,1.33901 -3.855336,0.96569 -3.931478,0.5832 -3.969688,0.195 -3.969688,-0.195 -3.93147,-0.5832 -3.85534,-0.96569 -3.742202,-1.33901 -3.592901,-1.6993 -3.408998,-2.04329 -3.192299,-2.36761 -2.9449,-2.6691 -2.669101,-2.9449 -2.3676,-3.1923 -2.043299,-3.40899 -1.6993,-3.59291 -1.339001,-3.7422 L 5.778203,153.64535 5.195002,149.71387 5,145.74418 l 0.195002,-3.96968 0.583194,-3.93148 0.965695,-3.85533 1.339004,-3.7422 1.6993,-3.5929 2.043299,-3.40899 2.367602,-3.19231 2.669098,-2.94489 2.944901,-2.66912 3.192301,-2.36759 3.409,-2.0433 3.592901,-1.6993 3.742199,-1.33899 3.855338,-0.96572 3.931471,-0.5832 3.969688,-0.19499 3.969688,0.19499 3.93147,0.5832 3.855336,0.96572 3.742211,1.33899 3.592901,1.6993 3.40899,2.0433 3.192306,2.36759 2.944894,2.66909 2.669104,2.94492 z"
       class="outer" />
  </g>
  <g
     id="g18">
    <path
       style="fill:none;stroke:#000000;stroke-width:0.2;stroke-linecap:butt;stroke-linejoin:bevel;stroke-opacity:1;stroke-dasharray:0.5, 1;stroke-dashoffset:0"
       inkscape:connector-curvature="0"
       id="path20"
       d="m 15,79.176287 -8.208704,0 m 0,16.000003 8.208704,0"
       class="convex" />
    <path
       style="fill:none;stroke:#000000;stroke-width:0.30000001;stroke-linecap:butt;stroke-linejoin:bevel;stroke-opacity:1;stroke-dasharray:none;stroke-dashoffset:0"
       inkscape:connector-curvature="0"
       id="path22"
       d="m 15,69.108392 0,10.067895 0,16.000003 0,10.0679 -8.208704,-10.0679 -1.791296,0 0,-16.000003 1.791296,0 z"
       class="outer" />
  </g>
  <g
     id="g24"
     transform="translate(28.222224,-38.792165)">
    <path
       style="fill:none;stroke:#000000;stroke-width:0.20000001;stroke-linecap:butt;stroke-linejoin:bevel;stroke-opacity:1;stroke-dasharray:none;stroke-dashoffset:0;stroke-miterlimit:4"
       inkscape:connector-curvature="0"
       id="path26"
       d="m 96.460571,277.85786 22.823499,-1e-5"
       class="convex" />
    <path
       style="fill:none;stroke:#000000;stroke-width:0.30000001;stroke-linecap:butt;stroke-linejoin:bevel;stroke-opacity:1;stroke-dasharray:none;stroke-dashoffset:0"
       inkscape:connector-curvature="0"
       id="path28"
       d="m 109.21208,291.99999 -12.751509,-1e-5 0,-14.14212 7e-6,-14.14213 12.751492,0 2.3555,3.67762 3.0853,4.47053 2.5177,3.37672 2.1135,2.61725 -2.1135,2.61725 -2.51769,3.37672 -3.0853,4.47054 z"
       class="outer" />
  </g>
  <g
     id="g30">
    <path
       style="fill:none;stroke:#000000;stroke-width:0.2;stroke-linecap:butt;stroke-linejoin:bevel;stroke-opacity:1;stroke-dasharray:0.5, 1;stroke-dashoffset:0"
       inkscape:connector-curvature="0"
       id="path32"
       d="m 57.263893,239.1221 12.23506,-51.44463 M 57.263893,239.1221 34.591402,191.34961 m 22.672491,47.77249 -7.504724,52.34433 m 7.504724,-52.34433 30.266382,43.36123 M 7.834716,247.14736 5.000014,247.1431 m 52.263879,-8.021 -15.260786,-50.62964 M 57.263893,239.1221 31.067356,193.18745 M 57.263893,239.1221 53.7119,291.88222 m 3.551993,-52.76012 -3.552008,-52.76014 m 3.552008,52.76014 33.43764,40.96553 m -33.43764,-40.96553 0.420738,-52.87792 m -22.19471,52.87792 21.773972,0 m 0,0 36.420047,38.33838 M 57.263893,239.1221 61.654967,186.42516 M 57.263893,239.1221 27.691321,195.28473 m 29.572572,43.83737 0.420746,52.87789 m -25.003374,-54.72945 24.582628,1.85156 m 0,0 -19.020352,-49.34041 M 57.263893,239.1221 93.683925,200.78369 M 57.263893,239.1221 24.482288,197.62975 m 32.781605,41.49235 4.391082,52.69692 m -32.436898,-56.94587 28.045816,4.24895 m 0,0 33.437625,-40.96555 M 57.263893,239.1221 21.458459,200.20911 m 35.805434,38.91299 8.336615,52.21825 m -40.77599,-44.77538 32.439375,-7.44287 m 0,0 30.266382,-43.36124 M 57.263893,239.1221 18.636947,203.00827 m 38.626946,36.11383 12.235075,51.44461 M 57.263893,239.1221 45.848911,187.48929 m -16.630819,55.88176 28.045801,-4.24895 m 0,0 26.924059,-45.51203 M 57.263893,239.1221 16.033644,206.01147 m 41.230249,33.11063 16.06442,50.38036 M 57.263893,239.1221 49.759147,186.77777 m 7.504746,52.34433 23.429692,-47.40569 M 57.263893,239.1221 13.663234,209.20172 m 43.600659,29.92038 19.802988,49.03151 M 57.263893,239.1221 65.6005,186.90382 M 57.263893,239.1221 77.066881,190.09056 M 57.263893,239.1221 11.53913,212.56098 m 45.724763,26.56112 23.429699,47.40568 M 57.263893,239.1221 73.328306,188.74172 M 57.263893,239.1221 9.673323,216.07027 m 47.59057,23.05183 26.924074,45.51201 M 57.263893,239.1221 8.076358,219.70978 M 57.263893,239.1221 18.636965,275.23591 M 57.263893,239.1221 6.757288,223.459 m 50.506605,15.6631 -35.805415,38.91299 M 57.263893,239.1221 24.482301,280.61444 m -3.599805,-33.14501 -15.158967,3.47802 m 19.100966,-19.26823 32.439398,7.44288 m -24.582624,1.85157 24.582624,-1.85157 m 0,0 -29.572548,43.83733 M 57.263893,239.1221 6.757321,254.7852 M 57.263893,239.1221 31.06738,285.05673 M 57.263893,239.1221 8.076396,258.5344 M 57.263893,239.1221 34.591426,286.89456 M 20.882483,230.77476 5.7235,227.29675 M 57.263893,239.1221 9.673352,262.17391 M 57.263893,239.1221 38.243559,288.4625 M 57.263893,239.1221 11.539149,265.6832 M 57.263893,239.1221 42.003126,289.75171 M 57.263893,239.1221 13.663268,269.04247 M 57.263893,239.1221 45.848926,290.7549 M 57.263893,239.1221 16.033677,272.23272 M 7.834697,231.09684 5,231.1011"
       class="convex" />
    <path
       style="fill:none;stroke:#000000;stroke-width:0.30000001;stroke-linecap:butt;stroke-linejoin:bevel;stroke-opacity:1;stroke-dasharray:none;stroke-dashoffset:0"
       inkscape:connector-curvature="0"
       id="path34"
       d="m 6.757321,254.7852 -1.033792,-3.83775 -0.723515,-3.80435 1.704846,-1.38576 1.129856,1.39002 12.990183,0.0195 0.0576,0.30255 0.469956,1.7447 3.472066,-2.64916 4.393574,-3.19392 3.463177,-2.39738 2.808652,-1.85157 -2.808656,-1.85156 -3.463188,-2.39739 -4.393582,-3.19393 -3.472067,-2.64916 -0.469945,1.7447 -0.0576,0.30255 -12.990187,0.0195 L 6.70484,232.48687 5,231.1011 l 0.7235,-3.80435 1.033788,-3.83775 1.31907,-3.74922 1.596965,-3.63951 1.865807,-3.50929 2.124104,-3.35926 2.37041,-3.19025 2.603303,-3.0032 2.821512,-2.79916 3.023829,-2.57936 3.209033,-2.34502 3.376035,-2.09728 3.524046,-1.83784 3.652139,-1.56792 3.759566,-1.28923 3.845804,-1.00317 3.910236,-0.71152 3.952738,-0.41581 3.972746,-0.11778 3.970336,0.18098 3.945533,0.47866 3.898453,0.77365 3.829353,1.06425 3.738575,1.34884 3.626704,1.62585 3.494367,1.89366 3.342323,2.15079 3.171243,2.39569 2.982407,2.62714 2.776646,2.84373 -39.196678,35.49468 39.19667,35.49466 -2.776623,2.84372 -2.982407,2.62715 -3.171258,2.3957 -3.342308,2.15078 -3.494375,1.89367 -3.626711,1.62583 -3.738568,1.34885 -3.829345,1.06425 -3.89846,0.77364 -3.945533,0.47867 -3.970336,0.18097 -3.972739,-0.11777 -3.952731,-0.41579 -3.910243,-0.71153 -3.8458,-1.00319 -3.759567,-1.28921 -3.652133,-1.56794 -3.524046,-1.83783 -3.376035,-2.0973 -3.209044,-2.34499 -3.023823,-2.57935 -2.821513,-2.79918 -2.603288,-3.00319 -2.370409,-3.19025 -2.124119,-3.35927 -1.865797,-3.50929 -1.596956,-3.63951 z"
       class="outer" />
  </g>
  <g
     id="g36"
     transform="translate(-81.469587,-9.8468983)">
    <path
       style="fill:none;stroke:#000000;stroke-width:0.30000001;stroke-linecap:butt;stroke-linejoin:bevel;stroke-opacity:1;stroke-dasharray:none;stroke-dashoffset:0"
       inkscape:connector-curvature="0"
       id="path38"
       d="m 105.92167,102.52274 0.6817,2.72145 -0.0749,-0.29873 -10.067899,-1e-5 0,-15.999991 10.067899,0 0.0749,-0.298739 -0.6817,2.721444 -0.4117,2.775162 -0.1376,2.802134 0.1376,2.802119 z"
       class="outer" />
  </g>
</svg>
